<svg xmlns="http://www.w3.org/2000/svg" width="63" height="68" viewBox="0 0 63 68">
  <title>delete-svg</title>
  <g>
    <path d="M60.85 9.66H46.186V7.38c0-4.07-3.477-7.382-7.75-7.382H24.498c-4.275 0-7.752 3.312-7.752 7.382v2.28H2.086C1 9.66.13 10.486.13 11.52c0 1.035.87 1.863 1.956 1.863H5.62v43.77c0 5.49 4.695 9.962 10.46 9.962h30.774c5.766 0 10.46-4.47 10.46-9.963v-43.77h3.535c1.083 0 1.953-.827 1.953-1.862 0-1.035-.87-1.863-1.956-1.863zM20.66 7.38c0-2.014 1.724-3.656 3.84-3.656h13.936c2.115 0 3.84 1.642 3.84 3.656v2.28H20.66V7.38zm32.742 49.772c0 3.436-2.94 6.238-6.548 6.238H16.08c-3.606 0-6.547-2.802-6.547-6.238v-43.77h43.884v43.77h-.015z"/>
    <path d="M31.468 56.713c1.086 0 1.955-.828 1.955-1.863V21.926c0-1.035-.87-1.863-1.955-1.863-1.087 0-1.956.828-1.956 1.863v32.91c0 1.035.87 1.877 1.956 1.877zm-12.764-2.056c1.086 0 1.956-.828 1.956-1.863V23.968c0-1.034-.87-1.862-1.956-1.862-1.087 0-1.956.828-1.956 1.862v28.826c0 1.035.884 1.863 1.956 1.863zm25.526 0c1.088 0 1.957-.828 1.957-1.863V23.968c0-1.034-.87-1.862-1.956-1.862-1.083 0-1.953.828-1.953 1.862v28.826c0 1.035.87 1.863 1.956 1.863z"/>
  </g>
</svg>
