<?xml version="1.0" encoding="UTF-8"?>
<svg width="20px" height="19px" viewBox="0 0 20 19" version="1.1" xmlns="http://www.w3.org/2000/svg" xmlns:xlink="http://www.w3.org/1999/xlink">
    <!-- Generator: Sketch 47.1 (45422) - http://www.bohemiancoding.com/sketch -->
    <title>Shape</title>
    <desc>Created with Sketch.</desc>
    <defs></defs>
    <g id="Page-1" stroke="none" stroke-width="1" fill="none" fill-rule="evenodd">
        <g id="Modal---Video-Library" transform="translate(-397.000000, -54.000000)" fill-rule="nonzero" fill="#000000">
            <g id="Group-10" transform="translate(22.000000, 20.000000)">
                <g id="Group-6" transform="translate(360.000000, 23.000000)">
                    <g id="Group">
                        <g id="upload" transform="translate(15.000000, 11.000000)">
                            <path d="M16.2422998,4.83778234 C18.3942505,5.40451745 19.9671458,7.45379877 19.9712526,9.75770021 C19.9712526,11.0308008 19.4989733,12.2546201 18.6324435,13.2073922 C17.761807,14.1683778 16.5913758,14.7433265 15.338809,14.8336756 C15.3223819,14.8336756 15.3100616,14.8336756 15.2977413,14.8336756 L12.2505133,14.8336756 C11.9425051,14.8336756 11.6960986,14.587269 11.6960986,14.2792608 C11.6960986,13.9712526 11.9425051,13.724846 12.2505133,13.724846 L15.2772074,13.724846 C17.2566735,13.5728953 18.862423,11.798768 18.862423,9.75770021 C18.862423,7.83162218 17.4825462,6.14373717 15.6550308,5.83162218 C15.4086242,5.79055441 15.2197125,5.58932238 15.1950719,5.33880903 C14.9650924,2.93223819 12.9650924,1.11704312 10.5420945,1.11704312 C8.73921971,1.11704312 7.08008214,2.16837782 6.31211499,3.79876797 C6.1889117,4.05749487 5.88911704,4.18069815 5.61806982,4.08213552 C5.3963039,4 5.15811088,3.95893224 4.91581109,3.95893224 C3.78234086,3.95893224 2.85831622,4.88295688 2.85831622,6.0164271 C2.85831622,6.26694045 2.89938398,6.50102669 2.98151951,6.72279261 C3.07186858,6.97741273 2.97330595,7.26078029 2.73921971,7.3963039 C1.73305955,7.9835729 1.10882957,9.06776181 1.10882957,10.2299795 C1.10882957,12.0287474 2.52156057,13.6262834 4.20123203,13.7289528 L7.71663244,13.7289528 C8.02464066,13.7289528 8.27104723,13.9753593 8.27104723,14.2833676 C8.27104723,14.5913758 8.02464066,14.8377823 7.71663244,14.8377823 L4.18480493,14.8377823 C4.1724846,14.8377823 4.16427105,14.8377823 4.15195072,14.8377823 C3.0349076,14.7761807 1.98767967,14.2464066 1.19507187,13.3511294 C0.422997947,12.476386 0,11.3716632 0,10.2340862 C0,8.82546201 0.685831622,7.50308008 1.81519507,6.68172485 C1.77412731,6.46817248 1.74948665,6.25051335 1.74948665,6.02464066 C1.74948665,4.27926078 3.17043121,2.85831622 4.91581109,2.85831622 C5.1211499,2.85831622 5.32648871,2.8788501 5.52361396,2.91581109 C5.97946612,2.11909651 6.62422998,1.44147844 7.40041068,0.940451745 C8.33264887,0.336755647 9.42094456,0.0164271047 10.5379877,0.0164271047 C11.9835729,0.0164271047 13.3716632,0.554414784 14.4394251,1.53182752 C15.4004107,2.41067762 16.0287474,3.5687885 16.2422998,4.83778234 Z M13.3141684,10.7597536 C13.0965092,10.9774127 12.7474333,10.9774127 12.5338809,10.7597536 L10.5420945,8.76796715 L10.5420945,17.9219713 C10.5420945,18.2299795 10.2956879,18.476386 9.98767967,18.476386 C9.67967146,18.476386 9.43326489,18.2299795 9.43326489,17.9219713 L9.43326489,8.76796715 L7.44147844,10.7597536 C7.33470226,10.8706366 7.19096509,10.9240246 7.0513347,10.9240246 C6.91170431,10.9240246 6.76796715,10.8665298 6.66119097,10.7597536 C6.44353183,10.5420945 6.44353183,10.1930185 6.66119097,9.97535934 L9.59753593,7.03901437 C9.70020534,6.93223819 9.84394251,6.87474333 9.98767967,6.87474333 C10.1314168,6.87474333 10.275154,6.93634497 10.3778234,7.03901437 L13.3141684,9.97535934 C13.5318275,10.1930185 13.5318275,10.5420945 13.3141684,10.7597536 Z" id="Shape"></path>
                        </g>
                    </g>
                </g>
            </g>
        </g>
    </g>
</svg>