<svg xmlns="http://www.w3.org/2000/svg" width="64" height="60" viewBox="0 0 64 60">
  <title>thumbnail-svg</title>
  <g fill-rule="evenodd">
    <path d="M26.442 41.464H2.3V2.626h48.284v19.42c0 .65.515 1.176 1.15 1.176.636 0 1.15-.527 1.15-1.177V1.45c0-.652-.514-1.178-1.15-1.178H1.15C.514.272 0 .798 0 1.45v41.19c0 .65.514 1.178 1.15 1.178h25.292c.635 0 1.15-.527 1.15-1.177s-.515-1.17-1.15-1.17z"/>
    <path d="M26.442 36.756H6.898v-7.163l5.864-6.002 7.826 5.88c.44.33 1.05.3 1.455-.08l12.264-11.46 4.995 7.16c.368.53 1.087.65 1.603.278.517-.378.637-1.114.268-1.643l-5.75-8.24c-.19-.275-.486-.452-.812-.486-.32-.036-.65.073-.89.3L21.19 27l-7.863-5.905c-.458-.343-1.093-.294-1.494.118l-4.935 5.052V7.335h39.088v14.71c0 .65.514 1.177 1.15 1.177.635 0 1.15-.527 1.15-1.177V6.157c0-.65-.515-1.177-1.15-1.177H5.748c-.635 0-1.15.526-1.15 1.177v31.776c0 .65.515 1.177 1.15 1.177h20.694c.635 0 1.15-.526 1.15-1.177 0-.65-.515-1.177-1.15-1.177z"/>
    <path d="M47.136 26.164c-8.875 0-16.095 7.39-16.095 16.477s7.22 16.48 16.1 16.48c8.88 0 16.1-7.39 16.1-16.47s-7.22-16.48-16.1-16.48zm0 30.6c-7.608 0-13.796-6.335-13.796-14.123 0-7.78 6.188-14.12 13.796-14.12 7.607 0 13.795 6.34 13.795 14.13 0 7.79-6.18 14.126-13.79 14.126z"/>
    <path d="M48.285 33.225h-2.3v8.24H37.94v2.353h8.048v8.238h2.3v-8.238h8.047v-2.354h-8.048m-35.64-27.07c0 2.597 2.06 4.71 4.6 4.71 2.534 0 4.596-2.113 4.596-4.71s-2.062-4.707-4.598-4.707c-2.537 0-4.6 2.112-4.6 4.708zm6.897 0c0 1.298-1.032 2.355-2.3 2.355-1.267 0-2.298-1.06-2.298-2.36s1.03-2.36 2.3-2.36c1.266 0 2.298 1.057 2.298 2.354z"/>
  </g>
</svg>
