<?xml version="1.0" encoding="UTF-8"?>
<svg width="1024px" height="1024px" viewBox="0 0 1024 1024" version="1.1" xmlns="http://www.w3.org/2000/svg" xmlns:xlink="http://www.w3.org/1999/xlink">
    <!-- Generator: Sketch 49.3 (51167) - http://www.bohemiancoding.com/sketch -->
    <title>Uploadit</title>
    <desc>Created with Sketch.</desc>
    <defs></defs>
    <g id="Uploadit" stroke="none" stroke-width="1" fill="none" fill-rule="evenodd">
        <g id="linkit" fill="#49535E" fill-rule="nonzero">
            <path d="M0,511 C0,928.495059 3.94377067,1022 511,1022 C1018.05623,1022 1022,928.495059 1022,511 C1022,93.5049407 1018.05623,0 511,0 C3.94377067,0 0,93.5049407 0,511 Z" id="bg"></path>
        </g>
        <path d="M758.49136,315.758165 C749.9856,307.252405 739.764424,303 727.814521,303 L293.437857,303 C281.492708,303 271.26963,307.251454 262.758165,315.758165 C254.251454,324.265827 250,334.488904 250,346.435004 L250,676.560242 C250,688.509194 254.251454,698.733223 262.758165,707.239934 C271.26963,715.746645 281.492708,720 293.437857,720 L727.821177,720 C739.764424,720 749.988452,715.746645 758.495163,707.239934 C767.000924,698.734173 771.258083,688.510145 771.258083,676.560242 L771.258083,346.435004 C771.258083,334.488904 767.000924,324.265827 758.49136,315.758165 Z M736.5,676.560242 C736.5,678.916561 735.645145,680.946722 733.925926,682.671647 C732.204805,684.383259 730.167987,685.241917 727.814521,685.241917 L293.437857,685.241917 C291.086292,685.241917 289.049474,684.383259 287.330255,682.671647 C285.611987,680.947673 284.751426,678.916561 284.751426,676.560242 L284.751426,346.4312 C284.751426,344.078685 285.609134,342.046621 287.330255,340.323599 C289.050425,338.609134 291.087243,337.748574 293.437857,337.748574 L727.821177,337.748574 C730.17084,337.748574 732.207658,338.609134 733.925926,340.323599 C735.638489,342.046621 736.5,344.078685 736.5,346.4312 L736.5,676.560242 Z" id="Shape" stroke="#FFFFFF" stroke-width="40" fill="#FFFFFF" fill-rule="nonzero"></path>
        <g id="Group" transform="translate(348.000000, 393.000000)" fill="#FFFFFF" fill-rule="nonzero">
            <path d="M44.4983764,89 C56.8613817,89 67.367785,84.6754659 76.0216451,76.0215268 C84.6730699,67.3675876 89,56.8619004 89,44.5020295 C89,32.1380996 84.6706345,21.6324124 76.0216451,12.9776614 C67.367785,4.32696956 56.8605699,0 44.4983764,0 C32.1369947,0 21.6314032,4.32696956 12.9775431,12.9776614 C4.32693009,21.6316006 0,32.1372878 0,44.5020295 C0,56.8619004 4.32449467,67.3700231 12.9775431,76.0215268 C21.6314032,84.6730304 32.1369947,89 44.4983764,89 Z" id="Shape" opacity="0.578974185"></path>
            <polygon id="Shape" points="111.476404 156.108878 74.3165179 118.890307 0 193.331523 0 238 327 238 327 133.778713 230.3869 37"></polygon>
        </g>
    </g>
</svg>