<?xml version="1.0" encoding="UTF-8"?>
<svg width="1024px" height="1024px" viewBox="0 0 1024 1024" version="1.1" xmlns="http://www.w3.org/2000/svg" xmlns:xlink="http://www.w3.org/1999/xlink">
    <!-- Generator: Sketch 49.3 (51167) - http://www.bohemiancoding.com/sketch -->
    <title>Uploadit Mask</title>
    <desc>Created with Sketch.</desc>
    <defs></defs>
    <g id="Uploadit-Mask" stroke="none" stroke-width="1" fill="none" fill-rule="evenodd">
        <path d="M758.49136,315.758165 C749.9856,307.252405 739.764424,303 727.814521,303 L293.437857,303 C281.492708,303 271.26963,307.251454 262.758165,315.758165 C254.251454,324.265827 250,334.488904 250,346.435004 L250,676.560242 C250,688.509194 254.251454,698.733223 262.758165,707.239934 C271.26963,715.746645 281.492708,720 293.437857,720 L727.821177,720 C739.764424,720 749.988452,715.746645 758.495163,707.239934 C767.000924,698.734173 771.258083,688.510145 771.258083,676.560242 L771.258083,346.435004 C771.258083,334.488904 767.000924,324.265827 758.49136,315.758165 Z M736.5,676.560242 C736.5,678.916561 735.645145,680.946722 733.925926,682.671647 C732.204805,684.383259 730.167987,685.241917 727.814521,685.241917 L293.437857,685.241917 C291.086292,685.241917 289.049474,684.383259 287.330255,682.671647 C285.611987,680.947673 284.751426,678.916561 284.751426,676.560242 L284.751426,346.4312 C284.751426,344.078685 285.609134,342.046621 287.330255,340.323599 C289.050425,338.609134 291.087243,337.748574 293.437857,337.748574 L727.821177,337.748574 C730.17084,337.748574 732.207658,338.609134 733.925926,340.323599 C735.638489,342.046621 736.5,344.078685 736.5,346.4312 L736.5,676.560242 Z" id="Shape" stroke="#000000" stroke-width="40" fill="#000000" fill-rule="nonzero"></path>
        <path d="M392.498376,482 C404.861382,482 415.367785,477.675466 424.021645,469.021527 C432.67307,460.367588 437,449.8619 437,437.50203 C437,425.1381 432.670634,414.632412 424.021645,405.977661 C415.367785,397.32697 404.86057,393 392.498376,393 C380.136995,393 369.631403,397.32697 360.977543,405.977661 C352.32693,414.631601 348,425.137288 348,437.50203 C348,449.8619 352.324495,460.370023 360.977543,469.021527 C369.631403,477.67303 380.136995,482 392.498376,482 Z" id="Shape" fill="#000000" fill-rule="nonzero"></path>
        <polygon id="Shape" fill="#000000" fill-rule="nonzero" points="459.476404 549.108878 422.316518 511.890307 348 586.331523 348 631 675 631 675 526.778713 578.3869 430"></polygon>
    </g>
</svg>